<svg version="1.1" viewBox="0.0 0.0 100.0 50.0" fill="none" stroke="none" stroke-linecap="square" stroke-miterlimit="10" xmlns:xlink="http://www.w3.org/1999/xlink" xmlns="http://www.w3.org/2000/svg"><clipPath id="p.0"><path d="m0 0l100.0 0l0 50.0l-100.0 0l0 -50.0z" clip-rule="nonzero"/></clipPath><g clip-path="url(#p.0)"><path fill="#000000" fill-opacity="0.0" d="m0 0l100.0 0l0 50.0l-100.0 0z" fill-rule="evenodd"/><path fill="#000000" fill-opacity="0.0" d="m-0.002563517 0.002624672l100.0 0l0 49.984253l-100.0 0z" fill-rule="evenodd"/><path fill="#6c2722" d="m28.872437 23.808872l-5.125 14.6875l-2.71875 0l-4.6875 -14.484375q-0.4375 -1.40625 -0.75 -1.984375q-0.296875 -0.578125 -0.640625 -0.859375q-0.34375 -0.28125 -1.109375 -0.484375l0 -0.953125l7.71875 0l0 0.953125q-1.125 0.234375 -1.53125 0.625q-0.40625 0.375 -0.40625 1.140625q0 0.515625 0.109375 1.09375q0.125 0.578125 0.359375 1.34375l3.078125 9.953125l5.015625 -15.109375l2.75 0l4.265625 15.109375l3.4375 -9.546875q0.265625 -0.734375 0.4375 -1.40625q0.1875 -0.6875 0.1875 -1.265625q0 -0.828125 -0.453125 -1.265625q-0.4375 -0.453125 -1.484375 -0.671875l0 -0.953125l6.8125 0l0 0.953125q-0.546875 0.140625 -0.828125 0.296875q-0.265625 0.140625 -0.53125 0.421875q-0.265625 0.28125 -0.59375 0.875q-0.3125 0.59375 -0.796875 1.84375l-5.640625 14.375l-2.640625 0l-4.234375 -14.6875zm21.921875 -1.015625l0.078125 0.015625q1.375 -1.421875 2.28125 -2.0625q0.90625 -0.640625 1.875 -0.984375q0.96875 -0.34375 2.125 -0.34375q2.078125 0 3.578125 1.0625q1.5 1.0625 2.296875 3.203125q0.8125 2.125 0.8125 5.203125q0 3.1875 -0.96875 5.390625q-0.953125 2.1875 -2.84375 3.3125q-1.890625 1.125 -4.46875 1.125q-1.4375 0 -2.71875 -0.265625q-1.28125 -0.265625 -2.6875 -0.921875l-1.359375 1.1875l-1.359375 -0.3125l0 -21.234375q0 -1.875 -0.03125 -2.609375q-0.015625 -0.75 -0.15625 -1.265625q-0.125 -0.515625 -0.34375 -0.8125q-0.21875 -0.296875 -0.609375 -0.46875q-0.375 -0.171875 -1.375 -0.34375l0 -1.015625l4.734375 -0.203125l1.140625 0l0 12.34375zm0 8.578125q0 1.5 0.140625 2.390625q0.140625 0.890625 0.453125 1.484375q0.328125 0.578125 0.9375 1.0625q0.625 0.484375 1.375 0.671875q0.765625 0.1875 1.703125 0.1875q2.34375 0 3.546875 -1.90625q1.21875 -1.921875 1.21875 -5.75q0 -3.859375 -1.109375 -5.796875q-1.09375 -1.953125 -3.3125 -1.953125q-1.125 0 -1.90625 0.34375q-0.78125 0.34375 -1.546875 1.0625q-0.765625 0.71875 -1.140625 1.421875q-0.359375 0.703125 -0.359375 1.609375l0 5.171875zm22.253906 -8.40625l0.265625 0.0625q1.078125 -1.3125 2.0 -2.0625q0.921875 -0.75 1.984375 -1.15625q1.0625 -0.40625 2.40625 -0.40625q1.140625 0 2.046875 0.109375l0 4.5l-2.203125 0q-0.46875 -1.0625 -1.0 -1.53125q-0.515625 -0.484375 -1.4375 -0.484375q-0.703125 0 -1.40625 0.40625q-0.6875 0.40625 -1.328125 1.1875q-0.640625 0.78125 -0.890625 1.46875q-0.25 0.6875 -0.25 1.625l0 6.828125q0 1.78125 0.21875 2.453125q0.21875 0.671875 0.71875 0.984375q0.5 0.3125 1.484375 0.5l0 0.953125l-7.859375 0l0 -0.953125q0.734375 -0.234375 1.046875 -0.40625q0.328125 -0.1875 0.5625 -0.5q0.234375 -0.3125 0.34375 -0.953125q0.125 -0.640625 0.125 -2.015625l0 -8.515625q0 -1.25 -0.046875 -2.0q-0.03125 -0.765625 -0.265625 -1.21875q-0.234375 -0.46875 -0.71875 -0.6875q-0.46875 -0.234375 -1.34375 -0.390625l0 -1.015625l4.5625 -0.1875l1.203125 0l-0.21875 3.40625zm11.542969 10.90625l0 4.53125l-3.953125 0l0 -4.53125l3.953125 0z" fill-rule="nonzero"/></g></svg>